<svg width="232" height="68" viewBox="0 0 232 68" fill="none" xmlns="http://www.w3.org/2000/svg">
<path fill-rule="evenodd" clip-rule="evenodd" d="M122.185 17.7562C122.098 17.7881 122.012 17.8206 121.926 17.8538C119.654 18.7301 117.674 19.9634 115.986 21.5537C114.299 23.1441 112.984 25.0103 112.043 27.1524C111.134 29.2945 110.68 31.6313 110.68 34.1628C110.68 36.6944 111.134 39.0312 112.043 41.1733C112.984 43.3154 114.283 45.1816 115.938 46.7719C117.625 48.3623 119.605 49.5956 121.877 50.4719C124.182 51.3482 126.681 51.7864 129.375 51.7864C132.036 51.7864 134.486 51.3482 136.726 50.4719C138.998 49.5956 140.961 48.3785 142.617 46.8206C144.304 45.2303 145.619 43.3641 146.56 41.222C147.501 39.0475 147.972 36.6944 147.972 34.1628C147.972 31.5988 147.501 29.262 146.56 27.1524C145.619 25.0103 144.304 23.1441 142.617 21.5537C140.961 19.9634 138.998 18.7301 136.726 17.8538C136.61 17.8085 136.494 17.7643 136.377 17.7214V25.7563C136.564 25.9217 136.745 26.0949 136.921 26.2761C137.894 27.2497 138.641 28.4019 139.16 29.7326C139.712 31.0633 139.988 32.54 139.988 34.1628C139.988 35.7856 139.712 37.2624 139.16 38.5931C138.641 39.9238 137.894 41.0759 136.921 42.0496C135.947 43.0233 134.811 43.7698 133.513 44.2891C132.247 44.8084 130.851 45.068 129.326 45.068C127.8 45.068 126.389 44.8084 125.09 44.2891C123.792 43.7698 122.656 43.0233 121.682 42.0496C120.741 41.0759 119.995 39.9238 119.443 38.5931C118.924 37.2299 118.664 35.7532 118.664 34.1628C118.664 32.54 118.924 31.0633 119.443 29.7326C119.995 28.4019 120.757 27.2497 121.731 26.2761C121.879 26.1283 122.03 25.9857 122.185 25.8484V17.7562ZM54.8381 42.5997V51.2022H47V17.1235H54.8381V33.0264L69.9301 17.1235H78.6932L64.5844 32.3068L79.5208 51.2022H70.3195L59.4048 37.8327L54.8381 42.5997ZM81.1852 46.0904V51.2022H106.939V44.7759H92.2673L100.123 37.376C101.713 35.883 102.914 34.5361 103.726 33.3352C104.57 32.1344 105.121 30.9984 105.381 29.9274C105.673 28.8239 105.819 27.7204 105.819 26.6169C105.819 24.5397 105.284 22.7546 104.213 21.2616C103.174 19.7687 101.697 18.6165 99.7824 17.8051C97.8999 16.9612 95.6929 16.5393 93.1614 16.5393C90.1105 16.5393 87.4167 17.1073 85.0799 18.2432C82.743 19.3792 80.9255 20.9208 79.6273 22.8682L85.372 26.5682C86.2158 25.3998 87.2382 24.5397 88.439 23.9879C89.6724 23.4362 91.0031 23.1603 92.4311 23.1603C94.2162 23.1603 95.5631 23.5335 96.4719 24.28C97.4131 24.9941 97.8837 26.0326 97.8837 27.3958C97.8837 27.9151 97.7863 28.4831 97.5916 29.0997C97.4293 29.7164 97.1048 30.398 96.6179 31.1444C96.1311 31.8909 95.3684 32.7348 94.3298 33.676L81.1852 46.0904ZM160.909 17.1235H154.386V51.2022H162.175V30.5179L179.166 51.2022H185.641V17.1235H177.851V37.7985L160.909 17.1235Z" fill="#3D3D3D"/>
<rect x="126.396" y="12" width="5.7704" height="19.6505" fill="#3D3D3D"/>
</svg>
